<!DOCTYPE svg PUBLIC "-//W3C//DTD SVG 1.1//EN" "http://www.w3.org/Graphics/SVG/1.1/DTD/svg11.dtd">

<!-- Uploaded to: SVG Repo, www.svgrepo.com, Transformed by: SVG Repo Mixer Tools -->
<svg width="800px" height="800px" viewBox="-2.4 -2.4 28.80 28.80" id="Layer_1" data-name="Layer 1" xmlns="http://www.w3.org/2000/svg" fill="#000000" stroke="#000000">

<g id="SVGRepo_bgCarrier" stroke-width="0">

<path transform="translate(-2.4, -2.4), scale(0.8999999999999999)" d="M16,28.390380332867306C18.419425583740704,29.036203049206545,21.078112136622277,29.771660318757746,23.374504254923927,28.77301605016111C25.706560393195044,27.7588623792922,27.48888438091549,25.49653473026343,28.240730134601677,23.067188838289844C28.955162945093758,20.758730747317497,27.39546842527407,18.415529205060164,27.327559236023163,16C27.26217176007666,13.674168112795906,28.563923705942678,11.372989806713234,27.84970890200803,9.158567375606964C27.084664764227078,6.7865486353688205,25.656451872508658,4.1229042843262595,23.267609918283096,3.412130371942192C20.79761543313572,2.677210407618132,18.576470151063166,5.685557070253328,16,5.632815518312984C13.33611819123215,5.578284608757485,11.181679528186745,2.6436674757699734,8.558549124333599,3.1110290013178687C5.8853954864711,3.5873031356042047,3.6277263415050394,5.721580791877811,2.2780743666626595,8.07764254179265C0.9298076125782746,10.431286138210192,0.7225473791307162,13.325571738493492,1.1752005500925904,15.999999999999996C1.5948023840833514,18.479149767183163,2.9376607683641307,20.739422474444975,4.721101609723089,22.5118750217888C6.291440793061034,24.07253889196253,8.63168526512037,24.33848691092065,10.594990193843838,25.36175159967047C12.458146635401508,26.332819398854536,13.970046255499522,27.84852021113983,16,28.390380332867306" fill="#3d67ff" strokewidth="0"/>

</g>

<g id="SVGRepo_tracerCarrier" stroke-linecap="round" stroke-linejoin="round"/>

<g id="SVGRepo_iconCarrier">

<defs>

<style>.cls-1{fill:none;stroke:#020202;stroke-miterlimit:10;stroke-width:1.91px;}</style>

</defs>

<circle class="cls-1" cx="6.27" cy="20.59" r="1.91"/>

<circle class="cls-1" cx="16.77" cy="20.59" r="1.91"/>

<line class="cls-1" x1="14.86" y1="20.59" x2="8.18" y2="20.59"/>

<path class="cls-1" d="M18.68,20.59H22.5V16.43A1.91,1.91,0,0,0,21,14.56l-2.32-.47a2.21,2.21,0,0,1-.51-.18,1.88,1.88,0,0,1-.82-.83l-.17-.35a4.78,4.78,0,0,0-4.27-2.64H9.16a5.69,5.69,0,0,0-5.27,3.57,1.91,1.91,0,0,1-1.77,1.2H1.5v5.73H4.36"/>

<line class="cls-1" x1="18.13" y1="13.91" x2="10.09" y2="13.91"/>

<path class="cls-1" d="M18.68,1.5h1A2.86,2.86,0,0,1,22.5,4.36v0a2.86,2.86,0,0,1-2.86,2.86h-1a1.91,1.91,0,0,1-1.91-1.91V3.41A1.91,1.91,0,0,1,18.68,1.5Z"/>

<line class="cls-1" x1="7.23" y1="4.36" x2="16.77" y2="4.36"/>

<line class="cls-1" x1="9.14" y1="6.27" x2="9.14" y2="4.36"/>

<line class="cls-1" x1="12" y1="6.27" x2="12" y2="4.36"/>

</g>

</svg>